# Realistic Industrial Robot Arm for Autodesk Fusion 360
mtllib realistic_robot_arm.mtl

v 0.17500 -0.37500 0.00000
v 0.72500 -0.37500 0.00000
v 0.72500 0.37500 0.00000
v 0.17500 0.37500 0.00000
v 0.17500 -0.37500 0.70000
v 0.72500 -0.37500 0.70000
v 0.72500 0.37500 0.70000
v 0.17500 0.37500 0.70000
v 0.16500 -0.38500 0.70000
v 0.73500 -0.38500 0.70000
v 0.73500 0.38500 0.70000
v 0.16500 0.38500 0.70000
v 0.16500 -0.38500 0.71000
v 0.73500 -0.38500 0.71000
v 0.73500 0.38500 0.71000
v 0.16500 0.38500 0.71000
v 0.45000 0.04500 0.71000
v 0.44122 0.04414 0.71000
v 0.43278 0.04157 0.71000
v 0.42500 0.03742 0.71000
v 0.41818 0.03182 0.71000
v 0.41258 0.02500 0.71000
v 0.40843 0.01722 0.71000
v 0.40586 0.00878 0.71000
v 0.40500 0.00000 0.71000
v 0.40586 -0.00878 0.71000
v 0.40843 -0.01722 0.71000
v 0.41258 -0.02500 0.71000
v 0.41818 -0.03182 0.71000
v 0.42500 -0.03742 0.71000
v 0.43278 -0.04157 0.71000
v 0.44122 -0.04414 0.71000
v 0.45000 -0.04500 0.71000
v 0.45878 -0.04414 0.71000
v 0.46722 -0.04157 0.71000
v 0.47500 -0.03742 0.71000
v 0.48182 -0.03182 0.71000
v 0.48742 -0.02500 0.71000
v 0.49157 -0.01722 0.71000
v 0.49414 -0.00878 0.71000
v 0.49500 -0.00000 0.71000
v 0.49414 0.00878 0.71000
v 0.49157 0.01722 0.71000
v 0.48742 0.02500 0.71000
v 0.48182 0.03182 0.71000
v 0.47500 0.03742 0.71000
v 0.46722 0.04157 0.71000
v 0.45878 0.04414 0.71000
v 0.45000 0.04500 0.82000
v 0.44122 0.04414 0.82000
v 0.43278 0.04157 0.82000
v 0.42500 0.03742 0.82000
v 0.41818 0.03182 0.82000
v 0.41258 0.02500 0.82000
v 0.40843 0.01722 0.82000
v 0.40586 0.00878 0.82000
v 0.40500 0.00000 0.82000
v 0.40586 -0.00878 0.82000
v 0.40843 -0.01722 0.82000
v 0.41258 -0.02500 0.82000
v 0.41818 -0.03182 0.82000
v 0.42500 -0.03742 0.82000
v 0.43278 -0.04157 0.82000
v 0.44122 -0.04414 0.82000
v 0.45000 -0.04500 0.82000
v 0.45878 -0.04414 0.82000
v 0.46722 -0.04157 0.82000
v 0.47500 -0.03742 0.82000
v 0.48182 -0.03182 0.82000
v 0.48742 -0.02500 0.82000
v 0.49157 -0.01722 0.82000
v 0.49414 -0.00878 0.82000
v 0.49500 -0.00000 0.82000
v 0.49414 0.00878 0.82000
v 0.49157 0.01722 0.82000
v 0.48742 0.02500 0.82000
v 0.48182 0.03182 0.82000
v 0.47500 0.03742 0.82000
v 0.46722 0.04157 0.82000
v 0.45878 0.04414 0.82000
v 0.45000 0.00000 0.71000
v 0.45000 0.00000 0.82000
v 0.45000 0.03800 0.72000
v 0.44259 0.03727 0.72000
v 0.43546 0.03511 0.72000
v 0.42889 0.03160 0.72000
v 0.42313 0.02687 0.72000
v 0.41840 0.02111 0.72000
v 0.41489 0.01454 0.72000
v 0.41273 0.00741 0.72000
v 0.41200 0.00000 0.72000
v 0.41273 -0.00741 0.72000
v 0.41489 -0.01454 0.72000
v 0.41840 -0.02111 0.72000
v 0.42313 -0.02687 0.72000
v 0.42889 -0.03160 0.72000
v 0.43546 -0.03511 0.72000
v 0.44259 -0.03727 0.72000
v 0.45000 -0.03800 0.72000
v 0.45741 -0.03727 0.72000
v 0.46454 -0.03511 0.72000
v 0.47111 -0.03160 0.72000
v 0.47687 -0.02687 0.72000
v 0.48160 -0.02111 0.72000
v 0.48511 -0.01454 0.72000
v 0.48727 -0.00741 0.72000
v 0.48800 -0.00000 0.72000
v 0.48727 0.00741 0.72000
v 0.48511 0.01454 0.72000
v 0.48160 0.02111 0.72000
v 0.47687 0.02687 0.72000
v 0.47111 0.03160 0.72000
v 0.46454 0.03511 0.72000
v 0.45741 0.03727 0.72000
v 0.45000 0.03800 0.82100
v 0.44259 0.03727 0.82100
v 0.43546 0.03511 0.82100
v 0.42889 0.03160 0.82100
v 0.42313 0.02687 0.82100
v 0.41840 0.02111 0.82100
v 0.41489 0.01454 0.82100
v 0.41273 0.00741 0.82100
v 0.41200 0.00000 0.82100
v 0.41273 -0.00741 0.82100
v 0.41489 -0.01454 0.82100
v 0.41840 -0.02111 0.82100
v 0.42313 -0.02687 0.82100
v 0.42889 -0.03160 0.82100
v 0.43546 -0.03511 0.82100
v 0.44259 -0.03727 0.82100
v 0.45000 -0.03800 0.82100
v 0.45741 -0.03727 0.82100
v 0.46454 -0.03511 0.82100
v 0.47111 -0.03160 0.82100
v 0.47687 -0.02687 0.82100
v 0.48160 -0.02111 0.82100
v 0.48511 -0.01454 0.82100
v 0.48727 -0.00741 0.82100
v 0.48800 -0.00000 0.82100
v 0.48727 0.00741 0.82100
v 0.48511 0.01454 0.82100
v 0.48160 0.02111 0.82100
v 0.47687 0.02687 0.82100
v 0.47111 0.03160 0.82100
v 0.46454 0.03511 0.82100
v 0.45741 0.03727 0.82100
v 0.45000 0.00000 0.72000
v 0.45000 0.00000 0.82100
v 0.40500 0.00000 0.72600
v 0.40500 0.00350 0.72694
v 0.40500 0.00606 0.72950
v 0.40500 0.00700 0.73300
v 0.40500 0.00606 0.73650
v 0.40500 0.00350 0.73906
v 0.40500 0.00000 0.74000
v 0.40500 -0.00350 0.73906
v 0.40500 -0.00606 0.73650
v 0.40500 -0.00700 0.73300
v 0.40500 -0.00606 0.72950
v 0.40500 -0.00350 0.72694
v 0.41031 0.00000 0.72636
v 0.41018 0.00350 0.72729
v 0.40983 0.00606 0.72983
v 0.40936 0.00700 0.73330
v 0.40888 0.00606 0.73677
v 0.40853 0.00350 0.73930
v 0.40840 0.00000 0.74023
v 0.40853 -0.00350 0.73930
v 0.40888 -0.00606 0.73677
v 0.40936 -0.00700 0.73330
v 0.40983 -0.00606 0.72983
v 0.41018 -0.00350 0.72729
v 0.41552 0.00000 0.72745
v 0.41527 0.00350 0.72835
v 0.41458 0.00606 0.73082
v 0.41363 0.00700 0.73419
v 0.41269 0.00606 0.73756
v 0.41200 0.00350 0.74002
v 0.41174 0.00000 0.74093
v 0.41200 -0.00350 0.74002
v 0.41269 -0.00606 0.73756
v 0.41363 -0.00700 0.73419
v 0.41458 -0.00606 0.73082
v 0.41527 -0.00350 0.72835
v 0.42054 0.00000 0.72923
v 0.42016 0.00350 0.73009
v 0.41914 0.00606 0.73244
v 0.41775 0.00700 0.73565
v 0.41635 0.00606 0.73886
v 0.41533 0.00350 0.74121
v 0.41496 0.00000 0.74207
v 0.41533 -0.00350 0.74121
v 0.41635 -0.00606 0.73886
v 0.41775 -0.00700 0.73565
v 0.41914 -0.00606 0.73244
v 0.42016 -0.00350 0.73009
v 0.42526 0.00000 0.73168
v 0.42478 0.00350 0.73248
v 0.42345 0.00606 0.73467
v 0.42163 0.00700 0.73766
v 0.41981 0.00606 0.74065
v 0.41848 0.00350 0.74284
v 0.41799 0.00000 0.74364
v 0.41848 -0.00350 0.74284
v 0.41981 -0.00606 0.74065
v 0.42163 -0.00700 0.73766
v 0.42345 -0.00606 0.73467
v 0.42478 -0.00350 0.73248
v 0.42961 0.00000 0.73475
v 0.42902 0.00350 0.73547
v 0.42740 0.00606 0.73746
v 0.42519 0.00700 0.74018
v 0.42299 0.00606 0.74289
v 0.42137 0.00350 0.74488
v 0.42078 0.00000 0.74561
v 0.42137 -0.00350 0.74488
v 0.42299 -0.00606 0.74289
v 0.42519 -0.00700 0.74018
v 0.42740 -0.00606 0.73746
v 0.42902 -0.00350 0.73547
v 0.43350 0.00000 0.73838
v 0.43282 0.00350 0.73902
v 0.43094 0.00606 0.74077
v 0.42839 0.00700 0.74316
v 0.42583 0.00606 0.74555
v 0.42396 0.00350 0.74730
v 0.42327 0.00000 0.74794
v 0.42396 -0.00350 0.74730
v 0.42583 -0.00606 0.74555
v 0.42839 -0.00700 0.74316
v 0.43094 -0.00606 0.74077
v 0.43282 -0.00350 0.73902
v 0.43686 0.00000 0.74251
v 0.43610 0.00350 0.74305
v 0.43400 0.00606 0.74453
v 0.43114 0.00700 0.74655
v 0.42828 0.00606 0.74856
v 0.42619 0.00350 0.75004
v 0.42542 0.00000 0.75058
v 0.42619 -0.00350 0.75004
v 0.42828 -0.00606 0.74856
v 0.43114 -0.00700 0.74655
v 0.43400 -0.00606 0.74453
v 0.43610 -0.00350 0.74305
v 0.43963 0.00000 0.74706
v 0.43879 0.00350 0.74749
v 0.43652 0.00606 0.74867
v 0.43341 0.00700 0.75028
v 0.43030 0.00606 0.75189
v 0.42803 0.00350 0.75307
v 0.42720 0.00000 0.75350
v 0.42803 -0.00350 0.75307
v 0.43030 -0.00606 0.75189
v 0.43341 -0.00700 0.75028
v 0.43652 -0.00606 0.74867
v 0.43879 -0.00350 0.74749
v 0.44175 0.00000 0.75194
v 0.44086 0.00350 0.75225
v 0.43845 0.00606 0.75311
v 0.43515 0.00700 0.75428
v 0.43185 0.00606 0.75546
v 0.42944 0.00350 0.75631
v 0.42856 0.00000 0.75663
v 0.42944 -0.00350 0.75631
v 0.43185 -0.00606 0.75546
v 0.43515 -0.00700 0.75428
v 0.43845 -0.00606 0.75311
v 0.44086 -0.00350 0.75225
v 0.44318 0.00000 0.75707
v 0.44227 0.00350 0.75726
v 0.43976 0.00606 0.75778
v 0.43633 0.00700 0.75849
v 0.43290 0.00606 0.75920
v 0.43040 0.00350 0.75972
v 0.42948 0.00000 0.75991
v 0.43040 -0.00350 0.75972
v 0.43290 -0.00606 0.75920
v 0.43633 -0.00700 0.75849
v 0.43976 -0.00606 0.75778
v 0.44227 -0.00350 0.75726
v 0.44391 0.00000 0.76234
v 0.44297 0.00350 0.76240
v 0.44042 0.00606 0.76258
v 0.43693 0.00700 0.76282
v 0.43343 0.00606 0.76306
v 0.43088 0.00350 0.76323
v 0.42994 0.00000 0.76329
v 0.43088 -0.00350 0.76323
v 0.43343 -0.00606 0.76306
v 0.43693 -0.00700 0.76282
v 0.44042 -0.00606 0.76258
v 0.44297 -0.00350 0.76240
v 0.44391 0.00000 0.76766
v 0.44297 0.00350 0.76760
v 0.44042 0.00606 0.76742
v 0.43693 0.00700 0.76718
v 0.43343 0.00606 0.76694
v 0.43088 0.00350 0.76677
v 0.42994 0.00000 0.76671
v 0.43088 -0.00350 0.76677
v 0.43343 -0.00606 0.76694
v 0.43693 -0.00700 0.76718
v 0.44042 -0.00606 0.76742
v 0.44297 -0.00350 0.76760
v 0.44318 0.00000 0.77293
v 0.44227 0.00350 0.77274
v 0.43976 0.00606 0.77222
v 0.43633 0.00700 0.77151
v 0.43290 0.00606 0.77080
v 0.43040 0.00350 0.77028
v 0.42948 0.00000 0.77009
v 0.43040 -0.00350 0.77028
v 0.43290 -0.00606 0.77080
v 0.43633 -0.00700 0.77151
v 0.43976 -0.00606 0.77222
v 0.44227 -0.00350 0.77274
v 0.44175 0.00000 0.77806
v 0.44086 0.00350 0.77775
v 0.43845 0.00606 0.77689
v 0.43515 0.00700 0.77572
v 0.43185 0.00606 0.77454
v 0.42944 0.00350 0.77369
v 0.42856 0.00000 0.77337
v 0.42944 -0.00350 0.77369
v 0.43185 -0.00606 0.77454
v 0.43515 -0.00700 0.77572
v 0.43845 -0.00606 0.77689
v 0.44086 -0.00350 0.77775
v 0.43963 0.00000 0.78294
v 0.43879 0.00350 0.78251
v 0.43652 0.00606 0.78133
v 0.43341 0.00700 0.77972
v 0.43030 0.00606 0.77811
v 0.42803 0.00350 0.77693
v 0.42720 0.00000 0.77650
v 0.42803 -0.00350 0.77693
v 0.43030 -0.00606 0.77811
v 0.43341 -0.00700 0.77972
v 0.43652 -0.00606 0.78133
v 0.43879 -0.00350 0.78251
v 0.43686 0.00000 0.78749
v 0.43610 0.00350 0.78695
v 0.43400 0.00606 0.78547
v 0.43114 0.00700 0.78345
v 0.42828 0.00606 0.78144
v 0.42619 0.00350 0.77996
v 0.42542 0.00000 0.77942
v 0.42619 -0.00350 0.77996
v 0.42828 -0.00606 0.78144
v 0.43114 -0.00700 0.78345
v 0.43400 -0.00606 0.78547
v 0.43610 -0.00350 0.78695
v 0.43350 0.00000 0.79162
v 0.43282 0.00350 0.79098
v 0.43094 0.00606 0.78923
v 0.42839 0.00700 0.78684
v 0.42583 0.00606 0.78445
v 0.42396 0.00350 0.78270
v 0.42327 0.00000 0.78206
v 0.42396 -0.00350 0.78270
v 0.42583 -0.00606 0.78445
v 0.42839 -0.00700 0.78684
v 0.43094 -0.00606 0.78923
v 0.43282 -0.00350 0.79098
v 0.42961 0.00000 0.79525
v 0.42902 0.00350 0.79453
v 0.42740 0.00606 0.79254
v 0.42519 0.00700 0.78982
v 0.42299 0.00606 0.78711
v 0.42137 0.00350 0.78512
v 0.42078 0.00000 0.78439
v 0.42137 -0.00350 0.78512
v 0.42299 -0.00606 0.78711
v 0.42519 -0.00700 0.78982
v 0.42740 -0.00606 0.79254
v 0.42902 -0.00350 0.79453
v 0.42526 0.00000 0.79832
v 0.42478 0.00350 0.79752
v 0.42345 0.00606 0.79533
v 0.42163 0.00700 0.79234
v 0.41981 0.00606 0.78935
v 0.41848 0.00350 0.78716
v 0.41799 0.00000 0.78636
v 0.41848 -0.00350 0.78716
v 0.41981 -0.00606 0.78935
v 0.42163 -0.00700 0.79234
v 0.42345 -0.00606 0.79533
v 0.42478 -0.00350 0.79752
v 0.42054 0.00000 0.80077
v 0.42016 0.00350 0.79991
v 0.41914 0.00606 0.79756
v 0.41775 0.00700 0.79435
v 0.41635 0.00606 0.79114
v 0.41533 0.00350 0.78879
v 0.41496 0.00000 0.78793
v 0.41533 -0.00350 0.78879
v 0.41635 -0.00606 0.79114
v 0.41775 -0.00700 0.79435
v 0.41914 -0.00606 0.79756
v 0.42016 -0.00350 0.79991
v 0.41552 0.00000 0.80255
v 0.41527 0.00350 0.80165
v 0.41458 0.00606 0.79918
v 0.41363 0.00700 0.79581
v 0.41269 0.00606 0.79244
v 0.41200 0.00350 0.78998
v 0.41174 0.00000 0.78907
v 0.41200 -0.00350 0.78998
v 0.41269 -0.00606 0.79244
v 0.41363 -0.00700 0.79581
v 0.41458 -0.00606 0.79918
v 0.41527 -0.00350 0.80165
v 0.41031 0.00000 0.80364
v 0.41018 0.00350 0.80271
v 0.40983 0.00606 0.80017
v 0.40936 0.00700 0.79670
v 0.40888 0.00606 0.79323
v 0.40853 0.00350 0.79070
v 0.40840 0.00000 0.78977
v 0.40853 -0.00350 0.79070
v 0.40888 -0.00606 0.79323
v 0.40936 -0.00700 0.79670
v 0.40983 -0.00606 0.80017
v 0.41018 -0.00350 0.80271
v 0.40500 0.00000 0.80400
v 0.40500 0.00350 0.80306
v 0.40500 0.00606 0.80050
v 0.40500 0.00700 0.79700
v 0.40500 0.00606 0.79350
v 0.40500 0.00350 0.79094
v 0.40500 0.00000 0.79000
v 0.40500 -0.00350 0.79094
v 0.40500 -0.00606 0.79350
v 0.40500 -0.00700 0.79700
v 0.40500 -0.00606 0.80050
v 0.40500 -0.00350 0.80306
v 0.00000 0.09000 0.70000
v -0.01756 0.08827 0.70000
v -0.03444 0.08315 0.70000
v -0.05000 0.07483 0.70000
v -0.06364 0.06364 0.70000
v -0.07483 0.05000 0.70000
v -0.08315 0.03444 0.70000
v -0.08827 0.01756 0.70000
v -0.09000 0.00000 0.70000
v -0.08827 -0.01756 0.70000
v -0.08315 -0.03444 0.70000
v -0.07483 -0.05000 0.70000
v -0.06364 -0.06364 0.70000
v -0.05000 -0.07483 0.70000
v -0.03444 -0.08315 0.70000
v -0.01756 -0.08827 0.70000
v -0.00000 -0.09000 0.70000
v 0.01756 -0.08827 0.70000
v 0.03444 -0.08315 0.70000
v 0.05000 -0.07483 0.70000
v 0.06364 -0.06364 0.70000
v 0.07483 -0.05000 0.70000
v 0.08315 -0.03444 0.70000
v 0.08827 -0.01756 0.70000
v 0.09000 -0.00000 0.70000
v 0.08827 0.01756 0.70000
v 0.08315 0.03444 0.70000
v 0.07483 0.05000 0.70000
v 0.06364 0.06364 0.70000
v 0.05000 0.07483 0.70000
v 0.03444 0.08315 0.70000
v 0.01756 0.08827 0.70000
v 0.00000 0.09000 0.76000
v -0.01756 0.08827 0.76000
v -0.03444 0.08315 0.76000
v -0.05000 0.07483 0.76000
v -0.06364 0.06364 0.76000
v -0.07483 0.05000 0.76000
v -0.08315 0.03444 0.76000
v -0.08827 0.01756 0.76000
v -0.09000 0.00000 0.76000
v -0.08827 -0.01756 0.76000
v -0.08315 -0.03444 0.76000
v -0.07483 -0.05000 0.76000
v -0.06364 -0.06364 0.76000
v -0.05000 -0.07483 0.76000
v -0.03444 -0.08315 0.76000
v -0.01756 -0.08827 0.76000
v -0.00000 -0.09000 0.76000
v 0.01756 -0.08827 0.76000
v 0.03444 -0.08315 0.76000
v 0.05000 -0.07483 0.76000
v 0.06364 -0.06364 0.76000
v 0.07483 -0.05000 0.76000
v 0.08315 -0.03444 0.76000
v 0.08827 -0.01756 0.76000
v 0.09000 -0.00000 0.76000
v 0.08827 0.01756 0.76000
v 0.08315 0.03444 0.76000
v 0.07483 0.05000 0.76000
v 0.06364 0.06364 0.76000
v 0.05000 0.07483 0.76000
v 0.03444 0.08315 0.76000
v 0.01756 0.08827 0.76000
v 0.00000 0.00000 0.70000
v 0.00000 0.00000 0.76000
v 0.00000 0.07500 0.76000
v -0.01463 0.07356 0.76000
v -0.02870 0.06929 0.76000
v -0.04167 0.06236 0.76000
v -0.05303 0.05303 0.76000
v -0.06236 0.04167 0.76000
v -0.06929 0.02870 0.76000
v -0.07356 0.01463 0.76000
v -0.07500 0.00000 0.76000
v -0.07356 -0.01463 0.76000
v -0.06929 -0.02870 0.76000
v -0.06236 -0.04167 0.76000
v -0.05303 -0.05303 0.76000
v -0.04167 -0.06236 0.76000
v -0.02870 -0.06929 0.76000
v -0.01463 -0.07356 0.76000
v -0.00000 -0.07500 0.76000
v 0.01463 -0.07356 0.76000
v 0.02870 -0.06929 0.76000
v 0.04167 -0.06236 0.76000
v 0.05303 -0.05303 0.76000
v 0.06236 -0.04167 0.76000
v 0.06929 -0.02870 0.76000
v 0.07356 -0.01463 0.76000
v 0.07500 -0.00000 0.76000
v 0.07356 0.01463 0.76000
v 0.06929 0.02870 0.76000
v 0.06236 0.04167 0.76000
v 0.05303 0.05303 0.76000
v 0.04167 0.06236 0.76000
v 0.02870 0.06929 0.76000
v 0.01463 0.07356 0.76000
v 0.00000 0.07500 0.82000
v -0.01463 0.07356 0.82000
v -0.02870 0.06929 0.82000
v -0.04167 0.06236 0.82000
v -0.05303 0.05303 0.82000
v -0.06236 0.04167 0.82000
v -0.06929 0.02870 0.82000
v -0.07356 0.01463 0.82000
v -0.07500 0.00000 0.82000
v -0.07356 -0.01463 0.82000
v -0.06929 -0.02870 0.82000
v -0.06236 -0.04167 0.82000
v -0.05303 -0.05303 0.82000
v -0.04167 -0.06236 0.82000
v -0.02870 -0.06929 0.82000
v -0.01463 -0.07356 0.82000
v -0.00000 -0.07500 0.82000
v 0.01463 -0.07356 0.82000
v 0.02870 -0.06929 0.82000
v 0.04167 -0.06236 0.82000
v 0.05303 -0.05303 0.82000
v 0.06236 -0.04167 0.82000
v 0.06929 -0.02870 0.82000
v 0.07356 -0.01463 0.82000
v 0.07500 -0.00000 0.82000
v 0.07356 0.01463 0.82000
v 0.06929 0.02870 0.82000
v 0.06236 0.04167 0.82000
v 0.05303 0.05303 0.82000
v 0.04167 0.06236 0.82000
v 0.02870 0.06929 0.82000
v 0.01463 0.07356 0.82000
v 0.00000 0.00000 0.76000
v 0.00000 0.00000 0.82000
v 0.00000 0.06500 0.82000
v -0.01268 0.06375 0.82000
v -0.02487 0.06005 0.82000
v -0.03611 0.05405 0.82000
v -0.04596 0.04596 0.82000
v -0.05405 0.03611 0.82000
v -0.06005 0.02487 0.82000
v -0.06375 0.01268 0.82000
v -0.06500 0.00000 0.82000
v -0.06375 -0.01268 0.82000
v -0.06005 -0.02487 0.82000
v -0.05405 -0.03611 0.82000
v -0.04596 -0.04596 0.82000
v -0.03611 -0.05405 0.82000
v -0.02487 -0.06005 0.82000
v -0.01268 -0.06375 0.82000
v -0.00000 -0.06500 0.82000
v 0.01268 -0.06375 0.82000
v 0.02487 -0.06005 0.82000
v 0.03611 -0.05405 0.82000
v 0.04596 -0.04596 0.82000
v 0.05405 -0.03611 0.82000
v 0.06005 -0.02487 0.82000
v 0.06375 -0.01268 0.82000
v 0.06500 -0.00000 0.82000
v 0.06375 0.01268 0.82000
v 0.06005 0.02487 0.82000
v 0.05405 0.03611 0.82000
v 0.04596 0.04596 0.82000
v 0.03611 0.05405 0.82000
v 0.02487 0.06005 0.82000
v 0.01268 0.06375 0.82000
v 0.00000 0.06500 0.98000
v -0.01268 0.06375 0.98000
v -0.02487 0.06005 0.98000
v -0.03611 0.05405 0.98000
v -0.04596 0.04596 0.98000
v -0.05405 0.03611 0.98000
v -0.06005 0.02487 0.98000
v -0.06375 0.01268 0.98000
v -0.06500 0.00000 0.98000
v -0.06375 -0.01268 0.98000
v -0.06005 -0.02487 0.98000
v -0.05405 -0.03611 0.98000
v -0.04596 -0.04596 0.98000
v -0.03611 -0.05405 0.98000
v -0.02487 -0.06005 0.98000
v -0.01268 -0.06375 0.98000
v -0.00000 -0.06500 0.98000
v 0.01268 -0.06375 0.98000
v 0.02487 -0.06005 0.98000
v 0.03611 -0.05405 0.98000
v 0.04596 -0.04596 0.98000
v 0.05405 -0.03611 0.98000
v 0.06005 -0.02487 0.98000
v 0.06375 -0.01268 0.98000
v 0.06500 -0.00000 0.98000
v 0.06375 0.01268 0.98000
v 0.06005 0.02487 0.98000
v 0.05405 0.03611 0.98000
v 0.04596 0.04596 0.98000
v 0.03611 0.05405 0.98000
v 0.02487 0.06005 0.98000
v 0.01268 0.06375 0.98000
v 0.00000 0.00000 0.82000
v 0.00000 0.00000 0.98000
v 0.00000 -0.06000 0.92000
v -0.01171 -0.06000 0.92115
v -0.02296 -0.06000 0.92457
v -0.03333 -0.06000 0.93011
v -0.04243 -0.06000 0.93757
v -0.04989 -0.06000 0.94667
v -0.05543 -0.06000 0.95704
v -0.05885 -0.06000 0.96829
v -0.06000 -0.06000 0.98000
v -0.05885 -0.06000 0.99171
v -0.05543 -0.06000 1.00296
v -0.04989 -0.06000 1.01333
v -0.04243 -0.06000 1.02243
v -0.03333 -0.06000 1.02989
v -0.02296 -0.06000 1.03543
v -0.01171 -0.06000 1.03885
v -0.00000 -0.06000 1.04000
v 0.01171 -0.06000 1.03885
v 0.02296 -0.06000 1.03543
v 0.03333 -0.06000 1.02989
v 0.04243 -0.06000 1.02243
v 0.04989 -0.06000 1.01333
v 0.05543 -0.06000 1.00296
v 0.05885 -0.06000 0.99171
v 0.06000 -0.06000 0.98000
v 0.05885 -0.06000 0.96829
v 0.05543 -0.06000 0.95704
v 0.04989 -0.06000 0.94667
v 0.04243 -0.06000 0.93757
v 0.03333 -0.06000 0.93011
v 0.02296 -0.06000 0.92457
v 0.01171 -0.06000 0.92115
v 0.00000 0.06000 0.92000
v -0.01171 0.06000 0.92115
v -0.02296 0.06000 0.92457
v -0.03333 0.06000 0.93011
v -0.04243 0.06000 0.93757
v -0.04989 0.06000 0.94667
v -0.05543 0.06000 0.95704
v -0.05885 0.06000 0.96829
v -0.06000 0.06000 0.98000
v -0.05885 0.06000 0.99171
v -0.05543 0.06000 1.00296
v -0.04989 0.06000 1.01333
v -0.04243 0.06000 1.02243
v -0.03333 0.06000 1.02989
v -0.02296 0.06000 1.03543
v -0.01171 0.06000 1.03885
v -0.00000 0.06000 1.04000
v 0.01171 0.06000 1.03885
v 0.02296 0.06000 1.03543
v 0.03333 0.06000 1.02989
v 0.04243 0.06000 1.02243
v 0.04989 0.06000 1.01333
v 0.05543 0.06000 1.00296
v 0.05885 0.06000 0.99171
v 0.06000 0.06000 0.98000
v 0.05885 0.06000 0.96829
v 0.05543 0.06000 0.95704
v 0.04989 0.06000 0.94667
v 0.04243 0.06000 0.93757
v 0.03333 0.06000 0.93011
v 0.02296 0.06000 0.92457
v 0.01171 0.06000 0.92115
v 0.00000 -0.06000 0.98000
v 0.00000 0.06000 0.98000
v 0.00000 0.05000 0.98000
v -0.00596 0.04904 0.98772
v -0.01170 0.04619 0.99514
v -0.01699 0.04157 1.00198
v -0.02162 0.03536 1.00798
v -0.02542 0.02778 1.01290
v -0.02825 0.01913 1.01655
v -0.02998 0.00975 1.01880
v -0.03057 0.00000 1.01956
v -0.02998 -0.00975 1.01880
v -0.02825 -0.01913 1.01655
v -0.02542 -0.02778 1.01290
v -0.02162 -0.03536 1.00798
v -0.01699 -0.04157 1.00198
v -0.01170 -0.04619 0.99514
v -0.00596 -0.04904 0.98772
v -0.00000 -0.05000 0.98000
v 0.00596 -0.04904 0.97228
v 0.01170 -0.04619 0.96486
v 0.01699 -0.04157 0.95802
v 0.02162 -0.03536 0.95202
v 0.02542 -0.02778 0.94710
v 0.02825 -0.01913 0.94345
v 0.02998 -0.00975 0.94120
v 0.03057 -0.00000 0.94044
v 0.02998 0.00975 0.94120
v 0.02825 0.01913 0.94345
v 0.02542 0.02778 0.94710
v 0.02162 0.03536 0.95202
v 0.01699 0.04157 0.95802
v 0.01170 0.04619 0.96486
v 0.00596 0.04904 0.97228
v 0.22000 0.05000 1.15000
v 0.21404 0.04904 1.15772
v 0.20830 0.04619 1.16514
v 0.20301 0.04157 1.17198
v 0.19838 0.03536 1.17798
v 0.19458 0.02778 1.18290
v 0.19175 0.01913 1.18655
v 0.19002 0.00975 1.18880
v 0.18943 0.00000 1.18956
v 0.19002 -0.00975 1.18880
v 0.19175 -0.01913 1.18655
v 0.19458 -0.02778 1.18290
v 0.19838 -0.03536 1.17798
v 0.20301 -0.04157 1.17198
v 0.20830 -0.04619 1.16514
v 0.21404 -0.04904 1.15772
v 0.22000 -0.05000 1.15000
v 0.22596 -0.04904 1.14228
v 0.23170 -0.04619 1.13486
v 0.23699 -0.04157 1.12802
v 0.24162 -0.03536 1.12202
v 0.24542 -0.02778 1.11710
v 0.24825 -0.01913 1.11345
v 0.24998 -0.00975 1.11120
v 0.25057 -0.00000 1.11044
v 0.24998 0.00975 1.11120
v 0.24825 0.01913 1.11345
v 0.24542 0.02778 1.11710
v 0.24162 0.03536 1.12202
v 0.23699 0.04157 1.12802
v 0.23170 0.04619 1.13486
v 0.22596 0.04904 1.14228
v 0.00000 0.00000 0.98000
v 0.22000 0.00000 1.15000
v 0.22000 -0.05000 1.09800
v 0.20986 -0.05000 1.09900
v 0.20010 -0.05000 1.10196
v 0.19111 -0.05000 1.10676
v 0.18323 -0.05000 1.11323
v 0.17676 -0.05000 1.12111
v 0.17196 -0.05000 1.13010
v 0.16900 -0.05000 1.13986
v 0.16800 -0.05000 1.15000
v 0.16900 -0.05000 1.16014
v 0.17196 -0.05000 1.16990
v 0.17676 -0.05000 1.17889
v 0.18323 -0.05000 1.18677
v 0.19111 -0.05000 1.19324
v 0.20010 -0.05000 1.19804
v 0.20986 -0.05000 1.20100
v 0.22000 -0.05000 1.20200
v 0.23014 -0.05000 1.20100
v 0.23990 -0.05000 1.19804
v 0.24889 -0.05000 1.19324
v 0.25677 -0.05000 1.18677
v 0.26324 -0.05000 1.17889
v 0.26804 -0.05000 1.16990
v 0.27100 -0.05000 1.16014
v 0.27200 -0.05000 1.15000
v 0.27100 -0.05000 1.13986
v 0.26804 -0.05000 1.13010
v 0.26324 -0.05000 1.12111
v 0.25677 -0.05000 1.11323
v 0.24889 -0.05000 1.10676
v 0.23990 -0.05000 1.10196
v 0.23014 -0.05000 1.09900
v 0.22000 0.05000 1.09800
v 0.20986 0.05000 1.09900
v 0.20010 0.05000 1.10196
v 0.19111 0.05000 1.10676
v 0.18323 0.05000 1.11323
v 0.17676 0.05000 1.12111
v 0.17196 0.05000 1.13010
v 0.16900 0.05000 1.13986
v 0.16800 0.05000 1.15000
v 0.16900 0.05000 1.16014
v 0.17196 0.05000 1.16990
v 0.17676 0.05000 1.17889
v 0.18323 0.05000 1.18677
v 0.19111 0.05000 1.19324
v 0.20010 0.05000 1.19804
v 0.20986 0.05000 1.20100
v 0.22000 0.05000 1.20200
v 0.23014 0.05000 1.20100
v 0.23990 0.05000 1.19804
v 0.24889 0.05000 1.19324
v 0.25677 0.05000 1.18677
v 0.26324 0.05000 1.17889
v 0.26804 0.05000 1.16990
v 0.27100 0.05000 1.16014
v 0.27200 0.05000 1.15000
v 0.27100 0.05000 1.13986
v 0.26804 0.05000 1.13010
v 0.26324 0.05000 1.12111
v 0.25677 0.05000 1.11323
v 0.24889 0.05000 1.10676
v 0.23990 0.05000 1.10196
v 0.23014 0.05000 1.09900
v 0.22000 -0.05000 1.15000
v 0.22000 0.05000 1.15000
v 0.22000 -0.04200 1.15000
v 0.21310 -0.04119 1.14558
v 0.20646 -0.03880 1.14134
v 0.20035 -0.03492 1.13742
v 0.19499 -0.02970 1.13399
v 0.19059 -0.02333 1.13118
v 0.18732 -0.01607 1.12908
v 0.18530 -0.00819 1.12779
v 0.18462 -0.00000 1.12736
v 0.18530 0.00819 1.12779
v 0.18732 0.01607 1.12908
v 0.19059 0.02333 1.13118
v 0.19499 0.02970 1.13399
v 0.20035 0.03492 1.13742
v 0.20646 0.03880 1.14134
v 0.21310 0.04119 1.14558
v 0.22000 0.04200 1.15000
v 0.22690 0.04119 1.15442
v 0.23354 0.03880 1.15866
v 0.23965 0.03492 1.16258
v 0.24501 0.02970 1.16601
v 0.24941 0.02333 1.16882
v 0.25268 0.01607 1.17092
v 0.25470 0.00819 1.17221
v 0.25538 0.00000 1.17264
v 0.25470 -0.00819 1.17221
v 0.25268 -0.01607 1.17092
v 0.24941 -0.02333 1.16882
v 0.24501 -0.02970 1.16601
v 0.23965 -0.03492 1.16258
v 0.23354 -0.03880 1.15866
v 0.22690 -0.04119 1.15442
v 0.38000 -0.04200 0.90000
v 0.37310 -0.04119 0.89558
v 0.36646 -0.03880 0.89134
v 0.36035 -0.03492 0.88742
v 0.35499 -0.02970 0.88399
v 0.35059 -0.02333 0.88118
v 0.34732 -0.01607 0.87908
v 0.34530 -0.00819 0.87779
v 0.34462 -0.00000 0.87736
v 0.34530 0.00819 0.87779
v 0.34732 0.01607 0.87908
v 0.35059 0.02333 0.88118
v 0.35499 0.02970 0.88399
v 0.36035 0.03492 0.88742
v 0.36646 0.03880 0.89134
v 0.37310 0.04119 0.89558
v 0.38000 0.04200 0.90000
v 0.38690 0.04119 0.90442
v 0.39354 0.03880 0.90866
v 0.39965 0.03492 0.91258
v 0.40501 0.02970 0.91601
v 0.40941 0.02333 0.91882
v 0.41268 0.01607 0.92092
v 0.41470 0.00819 0.92221
v 0.41538 0.00000 0.92264
v 0.41470 -0.00819 0.92221
v 0.41268 -0.01607 0.92092
v 0.40941 -0.02333 0.91882
v 0.40501 -0.02970 0.91601
v 0.39965 -0.03492 0.91258
v 0.39354 -0.03880 0.90866
v 0.38690 -0.04119 0.90442
v 0.22000 0.00000 1.15000
v 0.38000 0.00000 0.90000
v 0.38000 -0.03500 0.85800
v 0.37181 -0.03500 0.85881
v 0.36393 -0.03500 0.86120
v 0.35667 -0.03500 0.86508
v 0.35030 -0.03500 0.87030
v 0.34508 -0.03500 0.87667
v 0.34120 -0.03500 0.88393
v 0.33881 -0.03500 0.89181
v 0.33800 -0.03500 0.90000
v 0.33881 -0.03500 0.90819
v 0.34120 -0.03500 0.91607
v 0.34508 -0.03500 0.92333
v 0.35030 -0.03500 0.92970
v 0.35667 -0.03500 0.93492
v 0.36393 -0.03500 0.93880
v 0.37181 -0.03500 0.94119
v 0.38000 -0.03500 0.94200
v 0.38819 -0.03500 0.94119
v 0.39607 -0.03500 0.93880
v 0.40333 -0.03500 0.93492
v 0.40970 -0.03500 0.92970
v 0.41492 -0.03500 0.92333
v 0.41880 -0.03500 0.91607
v 0.42119 -0.03500 0.90819
v 0.42200 -0.03500 0.90000
v 0.42119 -0.03500 0.89181
v 0.41880 -0.03500 0.88393
v 0.41492 -0.03500 0.87667
v 0.40970 -0.03500 0.87030
v 0.40333 -0.03500 0.86508
v 0.39607 -0.03500 0.86120
v 0.38819 -0.03500 0.85881
v 0.38000 0.03500 0.85800
v 0.37181 0.03500 0.85881
v 0.36393 0.03500 0.86120
v 0.35667 0.03500 0.86508
v 0.35030 0.03500 0.87030
v 0.34508 0.03500 0.87667
v 0.34120 0.03500 0.88393
v 0.33881 0.03500 0.89181
v 0.33800 0.03500 0.90000
v 0.33881 0.03500 0.90819
v 0.34120 0.03500 0.91607
v 0.34508 0.03500 0.92333
v 0.35030 0.03500 0.92970
v 0.35667 0.03500 0.93492
v 0.36393 0.03500 0.93880
v 0.37181 0.03500 0.94119
v 0.38000 0.03500 0.94200
v 0.38819 0.03500 0.94119
v 0.39607 0.03500 0.93880
v 0.40333 0.03500 0.93492
v 0.40970 0.03500 0.92970
v 0.41492 0.03500 0.92333
v 0.41880 0.03500 0.91607
v 0.42119 0.03500 0.90819
v 0.42200 0.03500 0.90000
v 0.42119 0.03500 0.89181
v 0.41880 0.03500 0.88393
v 0.41492 0.03500 0.87667
v 0.40970 0.03500 0.87030
v 0.40333 0.03500 0.86508
v 0.39607 0.03500 0.86120
v 0.38819 0.03500 0.85881
v 0.38000 -0.03500 0.90000
v 0.38000 0.03500 0.90000
v 0.38000 -0.03500 0.90000
v 0.37475 -0.03433 0.89563
v 0.36971 -0.03234 0.89143
v 0.36506 -0.02910 0.88755
v 0.36099 -0.02475 0.88416
v 0.35764 -0.01944 0.88137
v 0.35516 -0.01339 0.87930
v 0.35363 -0.00683 0.87802
v 0.35311 -0.00000 0.87759
v 0.35363 0.00683 0.87802
v 0.35516 0.01339 0.87930
v 0.35764 0.01944 0.88137
v 0.36099 0.02475 0.88416
v 0.36506 0.02910 0.88755
v 0.36971 0.03234 0.89143
v 0.37475 0.03433 0.89563
v 0.38000 0.03500 0.90000
v 0.38525 0.03433 0.90437
v 0.39029 0.03234 0.90857
v 0.39494 0.02910 0.91245
v 0.39901 0.02475 0.91584
v 0.40236 0.01944 0.91863
v 0.40484 0.01339 0.92070
v 0.40637 0.00683 0.92198
v 0.40689 0.00000 0.92241
v 0.40637 -0.00683 0.92198
v 0.40484 -0.01339 0.92070
v 0.40236 -0.01944 0.91863
v 0.39901 -0.02475 0.91584
v 0.39494 -0.02910 0.91245
v 0.39029 -0.03234 0.90857
v 0.38525 -0.03433 0.90437
v 0.43000 -0.03500 0.84000
v 0.42475 -0.03433 0.83563
v 0.41971 -0.03234 0.83143
v 0.41506 -0.02910 0.82755
v 0.41099 -0.02475 0.82416
v 0.40764 -0.01944 0.82137
v 0.40516 -0.01339 0.81930
v 0.40363 -0.00683 0.81802
v 0.40311 -0.00000 0.81759
v 0.40363 0.00683 0.81802
v 0.40516 0.01339 0.81930
v 0.40764 0.01944 0.82137
v 0.41099 0.02475 0.82416
v 0.41506 0.02910 0.82755
v 0.41971 0.03234 0.83143
v 0.42475 0.03433 0.83563
v 0.43000 0.03500 0.84000
v 0.43525 0.03433 0.84437
v 0.44029 0.03234 0.84857
v 0.44494 0.02910 0.85245
v 0.44901 0.02475 0.85584
v 0.45236 0.01944 0.85863
v 0.45484 0.01339 0.86070
v 0.45637 0.00683 0.86198
v 0.45689 0.00000 0.86241
v 0.45637 -0.00683 0.86198
v 0.45484 -0.01339 0.86070
v 0.45236 -0.01944 0.85863
v 0.44901 -0.02475 0.85584
v 0.44494 -0.02910 0.85245
v 0.44029 -0.03234 0.84857
v 0.43525 -0.03433 0.84437
v 0.38000 0.00000 0.90000
v 0.43000 0.00000 0.84000
v 0.41000 -0.05000 0.79000
v 0.45000 -0.05000 0.79000
v 0.45000 0.05000 0.79000
v 0.41000 0.05000 0.79000
v 0.41000 -0.05000 0.83000
v 0.45000 -0.05000 0.83000
v 0.45000 0.05000 0.83000
v 0.41000 0.05000 0.83000
v 0.41750 0.01900 0.73000
v 0.44250 0.01900 0.73000
v 0.44250 0.03100 0.73000
v 0.41750 0.03100 0.73000
v 0.41750 0.01900 0.80000
v 0.44250 0.01900 0.80000
v 0.44250 0.03100 0.80000
v 0.41750 0.03100 0.80000
v 0.41750 -0.03100 0.73000
v 0.44250 -0.03100 0.73000
v 0.44250 -0.01900 0.73000
v 0.41750 -0.01900 0.73000
v 0.41750 -0.03100 0.80000
v 0.44250 -0.03100 0.80000
v 0.44250 -0.01900 0.80000
v 0.41750 -0.01900 0.80000
v 0.41900 0.01800 0.73500
v 0.44100 0.01800 0.73500
v 0.44100 0.02200 0.73500
v 0.41900 0.02200 0.73500
v 0.41900 0.01800 0.79500
v 0.44100 0.01800 0.79500
v 0.44100 0.02200 0.79500
v 0.41900 0.02200 0.79500
v 0.41900 -0.02200 0.73500
v 0.44100 -0.02200 0.73500
v 0.44100 -0.01800 0.73500
v 0.41900 -0.01800 0.73500
v 0.41900 -0.02200 0.79500
v 0.44100 -0.02200 0.79500
v 0.44100 -0.01800 0.79500
v 0.41900 -0.01800 0.79500

usemtl Matte_Table
f 1 2 3 4
f 5 8 7 6
f 1 5 6 2
f 2 6 7 3
f 3 7 8 4
f 4 8 5 1
usemtl Dark_Joints
f 9 10 11 12
f 13 16 15 14
f 9 13 14 10
f 10 14 15 11
f 11 15 16 12
f 12 16 13 9
usemtl Ceramic_White
f 17 18 50 49
f 18 19 51 50
f 19 20 52 51
f 20 21 53 52
f 21 22 54 53
f 22 23 55 54
f 23 24 56 55
f 24 25 57 56
f 25 26 58 57
f 26 27 59 58
f 27 28 60 59
f 28 29 61 60
f 29 30 62 61
f 30 31 63 62
f 31 32 64 63
f 32 33 65 64
f 33 34 66 65
f 34 35 67 66
f 35 36 68 67
f 36 37 69 68
f 37 38 70 69
f 38 39 71 70
f 39 40 72 71
f 40 41 73 72
f 41 42 74 73
f 42 43 75 74
f 43 44 76 75
f 44 45 77 76
f 45 46 78 77
f 46 47 79 78
f 47 48 80 79
f 48 17 49 80
f 81 18 17
f 82 49 50
f 81 19 18
f 82 50 51
f 81 20 19
f 82 51 52
f 81 21 20
f 82 52 53
f 81 22 21
f 82 53 54
f 81 23 22
f 82 54 55
f 81 24 23
f 82 55 56
f 81 25 24
f 82 56 57
f 81 26 25
f 82 57 58
f 81 27 26
f 82 58 59
f 81 28 27
f 82 59 60
f 81 29 28
f 82 60 61
f 81 30 29
f 82 61 62
f 81 31 30
f 82 62 63
f 81 32 31
f 82 63 64
f 81 33 32
f 82 64 65
f 81 34 33
f 82 65 66
f 81 35 34
f 82 66 67
f 81 36 35
f 82 67 68
f 81 37 36
f 82 68 69
f 81 38 37
f 82 69 70
f 81 39 38
f 82 70 71
f 81 40 39
f 82 71 72
f 81 41 40
f 82 72 73
f 81 42 41
f 82 73 74
f 81 43 42
f 82 74 75
f 81 44 43
f 82 75 76
f 81 45 44
f 82 76 77
f 81 46 45
f 82 77 78
f 81 47 46
f 82 78 79
f 81 48 47
f 82 79 80
f 81 17 48
f 82 80 49
usemtl Dark_Joints
f 83 84 116 115
f 84 85 117 116
f 85 86 118 117
f 86 87 119 118
f 87 88 120 119
f 88 89 121 120
f 89 90 122 121
f 90 91 123 122
f 91 92 124 123
f 92 93 125 124
f 93 94 126 125
f 94 95 127 126
f 95 96 128 127
f 96 97 129 128
f 97 98 130 129
f 98 99 131 130
f 99 100 132 131
f 100 101 133 132
f 101 102 134 133
f 102 103 135 134
f 103 104 136 135
f 104 105 137 136
f 105 106 138 137
f 106 107 139 138
f 107 108 140 139
f 108 109 141 140
f 109 110 142 141
f 110 111 143 142
f 111 112 144 143
f 112 113 145 144
f 113 114 146 145
f 114 83 115 146
f 147 84 83
f 148 115 116
f 147 85 84
f 148 116 117
f 147 86 85
f 148 117 118
f 147 87 86
f 148 118 119
f 147 88 87
f 148 119 120
f 147 89 88
f 148 120 121
f 147 90 89
f 148 121 122
f 147 91 90
f 148 122 123
f 147 92 91
f 148 123 124
f 147 93 92
f 148 124 125
f 147 94 93
f 148 125 126
f 147 95 94
f 148 126 127
f 147 96 95
f 148 127 128
f 147 97 96
f 148 128 129
f 147 98 97
f 148 129 130
f 147 99 98
f 148 130 131
f 147 100 99
f 148 131 132
f 147 101 100
f 148 132 133
f 147 102 101
f 148 133 134
f 147 103 102
f 148 134 135
f 147 104 103
f 148 135 136
f 147 105 104
f 148 136 137
f 147 106 105
f 148 137 138
f 147 107 106
f 148 138 139
f 147 108 107
f 148 139 140
f 147 109 108
f 148 140 141
f 147 110 109
f 148 141 142
f 147 111 110
f 148 142 143
f 147 112 111
f 148 143 144
f 147 113 112
f 148 144 145
f 147 114 113
f 148 145 146
f 147 83 114
f 148 146 115
usemtl Handle_Green
f 149 150 162 161
f 150 151 163 162
f 151 152 164 163
f 152 153 165 164
f 153 154 166 165
f 154 155 167 166
f 155 156 168 167
f 156 157 169 168
f 157 158 170 169
f 158 159 171 170
f 159 160 172 171
f 160 149 161 172
f 161 162 174 173
f 162 163 175 174
f 163 164 176 175
f 164 165 177 176
f 165 166 178 177
f 166 167 179 178
f 167 168 180 179
f 168 169 181 180
f 169 170 182 181
f 170 171 183 182
f 171 172 184 183
f 172 161 173 184
f 173 174 186 185
f 174 175 187 186
f 175 176 188 187
f 176 177 189 188
f 177 178 190 189
f 178 179 191 190
f 179 180 192 191
f 180 181 193 192
f 181 182 194 193
f 182 183 195 194
f 183 184 196 195
f 184 173 185 196
f 185 186 198 197
f 186 187 199 198
f 187 188 200 199
f 188 189 201 200
f 189 190 202 201
f 190 191 203 202
f 191 192 204 203
f 192 193 205 204
f 193 194 206 205
f 194 195 207 206
f 195 196 208 207
f 196 185 197 208
f 197 198 210 209
f 198 199 211 210
f 199 200 212 211
f 200 201 213 212
f 201 202 214 213
f 202 203 215 214
f 203 204 216 215
f 204 205 217 216
f 205 206 218 217
f 206 207 219 218
f 207 208 220 219
f 208 197 209 220
f 209 210 222 221
f 210 211 223 222
f 211 212 224 223
f 212 213 225 224
f 213 214 226 225
f 214 215 227 226
f 215 216 228 227
f 216 217 229 228
f 217 218 230 229
f 218 219 231 230
f 219 220 232 231
f 220 209 221 232
f 221 222 234 233
f 222 223 235 234
f 223 224 236 235
f 224 225 237 236
f 225 226 238 237
f 226 227 239 238
f 227 228 240 239
f 228 229 241 240
f 229 230 242 241
f 230 231 243 242
f 231 232 244 243
f 232 221 233 244
f 233 234 246 245
f 234 235 247 246
f 235 236 248 247
f 236 237 249 248
f 237 238 250 249
f 238 239 251 250
f 239 240 252 251
f 240 241 253 252
f 241 242 254 253
f 242 243 255 254
f 243 244 256 255
f 244 233 245 256
f 245 246 258 257
f 246 247 259 258
f 247 248 260 259
f 248 249 261 260
f 249 250 262 261
f 250 251 263 262
f 251 252 264 263
f 252 253 265 264
f 253 254 266 265
f 254 255 267 266
f 255 256 268 267
f 256 245 257 268
f 257 258 270 269
f 258 259 271 270
f 259 260 272 271
f 260 261 273 272
f 261 262 274 273
f 262 263 275 274
f 263 264 276 275
f 264 265 277 276
f 265 266 278 277
f 266 267 279 278
f 267 268 280 279
f 268 257 269 280
f 269 270 282 281
f 270 271 283 282
f 271 272 284 283
f 272 273 285 284
f 273 274 286 285
f 274 275 287 286
f 275 276 288 287
f 276 277 289 288
f 277 278 290 289
f 278 279 291 290
f 279 280 292 291
f 280 269 281 292
f 281 282 294 293
f 282 283 295 294
f 283 284 296 295
f 284 285 297 296
f 285 286 298 297
f 286 287 299 298
f 287 288 300 299
f 288 289 301 300
f 289 290 302 301
f 290 291 303 302
f 291 292 304 303
f 292 281 293 304
f 293 294 306 305
f 294 295 307 306
f 295 296 308 307
f 296 297 309 308
f 297 298 310 309
f 298 299 311 310
f 299 300 312 311
f 300 301 313 312
f 301 302 314 313
f 302 303 315 314
f 303 304 316 315
f 304 293 305 316
f 305 306 318 317
f 306 307 319 318
f 307 308 320 319
f 308 309 321 320
f 309 310 322 321
f 310 311 323 322
f 311 312 324 323
f 312 313 325 324
f 313 314 326 325
f 314 315 327 326
f 315 316 328 327
f 316 305 317 328
f 317 318 330 329
f 318 319 331 330
f 319 320 332 331
f 320 321 333 332
f 321 322 334 333
f 322 323 335 334
f 323 324 336 335
f 324 325 337 336
f 325 326 338 337
f 326 327 339 338
f 327 328 340 339
f 328 317 329 340
f 329 330 342 341
f 330 331 343 342
f 331 332 344 343
f 332 333 345 344
f 333 334 346 345
f 334 335 347 346
f 335 336 348 347
f 336 337 349 348
f 337 338 350 349
f 338 339 351 350
f 339 340 352 351
f 340 329 341 352
f 341 342 354 353
f 342 343 355 354
f 343 344 356 355
f 344 345 357 356
f 345 346 358 357
f 346 347 359 358
f 347 348 360 359
f 348 349 361 360
f 349 350 362 361
f 350 351 363 362
f 351 352 364 363
f 352 341 353 364
f 353 354 366 365
f 354 355 367 366
f 355 356 368 367
f 356 357 369 368
f 357 358 370 369
f 358 359 371 370
f 359 360 372 371
f 360 361 373 372
f 361 362 374 373
f 362 363 375 374
f 363 364 376 375
f 364 353 365 376
f 365 366 378 377
f 366 367 379 378
f 367 368 380 379
f 368 369 381 380
f 369 370 382 381
f 370 371 383 382
f 371 372 384 383
f 372 373 385 384
f 373 374 386 385
f 374 375 387 386
f 375 376 388 387
f 376 365 377 388
f 377 378 390 389
f 378 379 391 390
f 379 380 392 391
f 380 381 393 392
f 381 382 394 393
f 382 383 395 394
f 383 384 396 395
f 384 385 397 396
f 385 386 398 397
f 386 387 399 398
f 387 388 400 399
f 388 377 389 400
f 389 390 402 401
f 390 391 403 402
f 391 392 404 403
f 392 393 405 404
f 393 394 406 405
f 394 395 407 406
f 395 396 408 407
f 396 397 409 408
f 397 398 410 409
f 398 399 411 410
f 399 400 412 411
f 400 389 401 412
f 401 402 414 413
f 402 403 415 414
f 403 404 416 415
f 404 405 417 416
f 405 406 418 417
f 406 407 419 418
f 407 408 420 419
f 408 409 421 420
f 409 410 422 421
f 410 411 423 422
f 411 412 424 423
f 412 401 413 424
f 413 414 426 425
f 414 415 427 426
f 415 416 428 427
f 416 417 429 428
f 417 418 430 429
f 418 419 431 430
f 419 420 432 431
f 420 421 433 432
f 421 422 434 433
f 422 423 435 434
f 423 424 436 435
f 424 413 425 436
usemtl Dark_Joints
f 437 438 470 469
f 438 439 471 470
f 439 440 472 471
f 440 441 473 472
f 441 442 474 473
f 442 443 475 474
f 443 444 476 475
f 444 445 477 476
f 445 446 478 477
f 446 447 479 478
f 447 448 480 479
f 448 449 481 480
f 449 450 482 481
f 450 451 483 482
f 451 452 484 483
f 452 453 485 484
f 453 454 486 485
f 454 455 487 486
f 455 456 488 487
f 456 457 489 488
f 457 458 490 489
f 458 459 491 490
f 459 460 492 491
f 460 461 493 492
f 461 462 494 493
f 462 463 495 494
f 463 464 496 495
f 464 465 497 496
f 465 466 498 497
f 466 467 499 498
f 467 468 500 499
f 468 437 469 500
f 501 438 437
f 502 469 470
f 501 439 438
f 502 470 471
f 501 440 439
f 502 471 472
f 501 441 440
f 502 472 473
f 501 442 441
f 502 473 474
f 501 443 442
f 502 474 475
f 501 444 443
f 502 475 476
f 501 445 444
f 502 476 477
f 501 446 445
f 502 477 478
f 501 447 446
f 502 478 479
f 501 448 447
f 502 479 480
f 501 449 448
f 502 480 481
f 501 450 449
f 502 481 482
f 501 451 450
f 502 482 483
f 501 452 451
f 502 483 484
f 501 453 452
f 502 484 485
f 501 454 453
f 502 485 486
f 501 455 454
f 502 486 487
f 501 456 455
f 502 487 488
f 501 457 456
f 502 488 489
f 501 458 457
f 502 489 490
f 501 459 458
f 502 490 491
f 501 460 459
f 502 491 492
f 501 461 460
f 502 492 493
f 501 462 461
f 502 493 494
f 501 463 462
f 502 494 495
f 501 464 463
f 502 495 496
f 501 465 464
f 502 496 497
f 501 466 465
f 502 497 498
f 501 467 466
f 502 498 499
f 501 468 467
f 502 499 500
f 501 437 468
f 502 500 469
usemtl Metallic_Arm
f 503 504 536 535
f 504 505 537 536
f 505 506 538 537
f 506 507 539 538
f 507 508 540 539
f 508 509 541 540
f 509 510 542 541
f 510 511 543 542
f 511 512 544 543
f 512 513 545 544
f 513 514 546 545
f 514 515 547 546
f 515 516 548 547
f 516 517 549 548
f 517 518 550 549
f 518 519 551 550
f 519 520 552 551
f 520 521 553 552
f 521 522 554 553
f 522 523 555 554
f 523 524 556 555
f 524 525 557 556
f 525 526 558 557
f 526 527 559 558
f 527 528 560 559
f 528 529 561 560
f 529 530 562 561
f 530 531 563 562
f 531 532 564 563
f 532 533 565 564
f 533 534 566 565
f 534 503 535 566
f 567 504 503
f 568 535 536
f 567 505 504
f 568 536 537
f 567 506 505
f 568 537 538
f 567 507 506
f 568 538 539
f 567 508 507
f 568 539 540
f 567 509 508
f 568 540 541
f 567 510 509
f 568 541 542
f 567 511 510
f 568 542 543
f 567 512 511
f 568 543 544
f 567 513 512
f 568 544 545
f 567 514 513
f 568 545 546
f 567 515 514
f 568 546 547
f 567 516 515
f 568 547 548
f 567 517 516
f 568 548 549
f 567 518 517
f 568 549 550
f 567 519 518
f 568 550 551
f 567 520 519
f 568 551 552
f 567 521 520
f 568 552 553
f 567 522 521
f 568 553 554
f 567 523 522
f 568 554 555
f 567 524 523
f 568 555 556
f 567 525 524
f 568 556 557
f 567 526 525
f 568 557 558
f 567 527 526
f 568 558 559
f 567 528 527
f 568 559 560
f 567 529 528
f 568 560 561
f 567 530 529
f 568 561 562
f 567 531 530
f 568 562 563
f 567 532 531
f 568 563 564
f 567 533 532
f 568 564 565
f 567 534 533
f 568 565 566
f 567 503 534
f 568 566 535
usemtl Metallic_Arm
f 569 570 602 601
f 570 571 603 602
f 571 572 604 603
f 572 573 605 604
f 573 574 606 605
f 574 575 607 606
f 575 576 608 607
f 576 577 609 608
f 577 578 610 609
f 578 579 611 610
f 579 580 612 611
f 580 581 613 612
f 581 582 614 613
f 582 583 615 614
f 583 584 616 615
f 584 585 617 616
f 585 586 618 617
f 586 587 619 618
f 587 588 620 619
f 588 589 621 620
f 589 590 622 621
f 590 591 623 622
f 591 592 624 623
f 592 593 625 624
f 593 594 626 625
f 594 595 627 626
f 595 596 628 627
f 596 597 629 628
f 597 598 630 629
f 598 599 631 630
f 599 600 632 631
f 600 569 601 632
f 633 570 569
f 634 601 602
f 633 571 570
f 634 602 603
f 633 572 571
f 634 603 604
f 633 573 572
f 634 604 605
f 633 574 573
f 634 605 606
f 633 575 574
f 634 606 607
f 633 576 575
f 634 607 608
f 633 577 576
f 634 608 609
f 633 578 577
f 634 609 610
f 633 579 578
f 634 610 611
f 633 580 579
f 634 611 612
f 633 581 580
f 634 612 613
f 633 582 581
f 634 613 614
f 633 583 582
f 634 614 615
f 633 584 583
f 634 615 616
f 633 585 584
f 634 616 617
f 633 586 585
f 634 617 618
f 633 587 586
f 634 618 619
f 633 588 587
f 634 619 620
f 633 589 588
f 634 620 621
f 633 590 589
f 634 621 622
f 633 591 590
f 634 622 623
f 633 592 591
f 634 623 624
f 633 593 592
f 634 624 625
f 633 594 593
f 634 625 626
f 633 595 594
f 634 626 627
f 633 596 595
f 634 627 628
f 633 597 596
f 634 628 629
f 633 598 597
f 634 629 630
f 633 599 598
f 634 630 631
f 633 600 599
f 634 631 632
f 633 569 600
f 634 632 601
usemtl Dark_Joints
f 635 636 668 667
f 636 637 669 668
f 637 638 670 669
f 638 639 671 670
f 639 640 672 671
f 640 641 673 672
f 641 642 674 673
f 642 643 675 674
f 643 644 676 675
f 644 645 677 676
f 645 646 678 677
f 646 647 679 678
f 647 648 680 679
f 648 649 681 680
f 649 650 682 681
f 650 651 683 682
f 651 652 684 683
f 652 653 685 684
f 653 654 686 685
f 654 655 687 686
f 655 656 688 687
f 656 657 689 688
f 657 658 690 689
f 658 659 691 690
f 659 660 692 691
f 660 661 693 692
f 661 662 694 693
f 662 663 695 694
f 663 664 696 695
f 664 665 697 696
f 665 666 698 697
f 666 635 667 698
f 699 636 635
f 700 667 668
f 699 637 636
f 700 668 669
f 699 638 637
f 700 669 670
f 699 639 638
f 700 670 671
f 699 640 639
f 700 671 672
f 699 641 640
f 700 672 673
f 699 642 641
f 700 673 674
f 699 643 642
f 700 674 675
f 699 644 643
f 700 675 676
f 699 645 644
f 700 676 677
f 699 646 645
f 700 677 678
f 699 647 646
f 700 678 679
f 699 648 647
f 700 679 680
f 699 649 648
f 700 680 681
f 699 650 649
f 700 681 682
f 699 651 650
f 700 682 683
f 699 652 651
f 700 683 684
f 699 653 652
f 700 684 685
f 699 654 653
f 700 685 686
f 699 655 654
f 700 686 687
f 699 656 655
f 700 687 688
f 699 657 656
f 700 688 689
f 699 658 657
f 700 689 690
f 699 659 658
f 700 690 691
f 699 660 659
f 700 691 692
f 699 661 660
f 700 692 693
f 699 662 661
f 700 693 694
f 699 663 662
f 700 694 695
f 699 664 663
f 700 695 696
f 699 665 664
f 700 696 697
f 699 666 665
f 700 697 698
f 699 635 666
f 700 698 667
usemtl Metallic_Arm
f 701 702 734 733
f 702 703 735 734
f 703 704 736 735
f 704 705 737 736
f 705 706 738 737
f 706 707 739 738
f 707 708 740 739
f 708 709 741 740
f 709 710 742 741
f 710 711 743 742
f 711 712 744 743
f 712 713 745 744
f 713 714 746 745
f 714 715 747 746
f 715 716 748 747
f 716 717 749 748
f 717 718 750 749
f 718 719 751 750
f 719 720 752 751
f 720 721 753 752
f 721 722 754 753
f 722 723 755 754
f 723 724 756 755
f 724 725 757 756
f 725 726 758 757
f 726 727 759 758
f 727 728 760 759
f 728 729 761 760
f 729 730 762 761
f 730 731 763 762
f 731 732 764 763
f 732 701 733 764
f 765 702 701
f 766 733 734
f 765 703 702
f 766 734 735
f 765 704 703
f 766 735 736
f 765 705 704
f 766 736 737
f 765 706 705
f 766 737 738
f 765 707 706
f 766 738 739
f 765 708 707
f 766 739 740
f 765 709 708
f 766 740 741
f 765 710 709
f 766 741 742
f 765 711 710
f 766 742 743
f 765 712 711
f 766 743 744
f 765 713 712
f 766 744 745
f 765 714 713
f 766 745 746
f 765 715 714
f 766 746 747
f 765 716 715
f 766 747 748
f 765 717 716
f 766 748 749
f 765 718 717
f 766 749 750
f 765 719 718
f 766 750 751
f 765 720 719
f 766 751 752
f 765 721 720
f 766 752 753
f 765 722 721
f 766 753 754
f 765 723 722
f 766 754 755
f 765 724 723
f 766 755 756
f 765 725 724
f 766 756 757
f 765 726 725
f 766 757 758
f 765 727 726
f 766 758 759
f 765 728 727
f 766 759 760
f 765 729 728
f 766 760 761
f 765 730 729
f 766 761 762
f 765 731 730
f 766 762 763
f 765 732 731
f 766 763 764
f 765 701 732
f 766 764 733
usemtl Dark_Joints
f 767 768 800 799
f 768 769 801 800
f 769 770 802 801
f 770 771 803 802
f 771 772 804 803
f 772 773 805 804
f 773 774 806 805
f 774 775 807 806
f 775 776 808 807
f 776 777 809 808
f 777 778 810 809
f 778 779 811 810
f 779 780 812 811
f 780 781 813 812
f 781 782 814 813
f 782 783 815 814
f 783 784 816 815
f 784 785 817 816
f 785 786 818 817
f 786 787 819 818
f 787 788 820 819
f 788 789 821 820
f 789 790 822 821
f 790 791 823 822
f 791 792 824 823
f 792 793 825 824
f 793 794 826 825
f 794 795 827 826
f 795 796 828 827
f 796 797 829 828
f 797 798 830 829
f 798 767 799 830
f 831 768 767
f 832 799 800
f 831 769 768
f 832 800 801
f 831 770 769
f 832 801 802
f 831 771 770
f 832 802 803
f 831 772 771
f 832 803 804
f 831 773 772
f 832 804 805
f 831 774 773
f 832 805 806
f 831 775 774
f 832 806 807
f 831 776 775
f 832 807 808
f 831 777 776
f 832 808 809
f 831 778 777
f 832 809 810
f 831 779 778
f 832 810 811
f 831 780 779
f 832 811 812
f 831 781 780
f 832 812 813
f 831 782 781
f 832 813 814
f 831 783 782
f 832 814 815
f 831 784 783
f 832 815 816
f 831 785 784
f 832 816 817
f 831 786 785
f 832 817 818
f 831 787 786
f 832 818 819
f 831 788 787
f 832 819 820
f 831 789 788
f 832 820 821
f 831 790 789
f 832 821 822
f 831 791 790
f 832 822 823
f 831 792 791
f 832 823 824
f 831 793 792
f 832 824 825
f 831 794 793
f 832 825 826
f 831 795 794
f 832 826 827
f 831 796 795
f 832 827 828
f 831 797 796
f 832 828 829
f 831 798 797
f 832 829 830
f 831 767 798
f 832 830 799
usemtl Metallic_Arm
f 833 834 866 865
f 834 835 867 866
f 835 836 868 867
f 836 837 869 868
f 837 838 870 869
f 838 839 871 870
f 839 840 872 871
f 840 841 873 872
f 841 842 874 873
f 842 843 875 874
f 843 844 876 875
f 844 845 877 876
f 845 846 878 877
f 846 847 879 878
f 847 848 880 879
f 848 849 881 880
f 849 850 882 881
f 850 851 883 882
f 851 852 884 883
f 852 853 885 884
f 853 854 886 885
f 854 855 887 886
f 855 856 888 887
f 856 857 889 888
f 857 858 890 889
f 858 859 891 890
f 859 860 892 891
f 860 861 893 892
f 861 862 894 893
f 862 863 895 894
f 863 864 896 895
f 864 833 865 896
f 897 834 833
f 898 865 866
f 897 835 834
f 898 866 867
f 897 836 835
f 898 867 868
f 897 837 836
f 898 868 869
f 897 838 837
f 898 869 870
f 897 839 838
f 898 870 871
f 897 840 839
f 898 871 872
f 897 841 840
f 898 872 873
f 897 842 841
f 898 873 874
f 897 843 842
f 898 874 875
f 897 844 843
f 898 875 876
f 897 845 844
f 898 876 877
f 897 846 845
f 898 877 878
f 897 847 846
f 898 878 879
f 897 848 847
f 898 879 880
f 897 849 848
f 898 880 881
f 897 850 849
f 898 881 882
f 897 851 850
f 898 882 883
f 897 852 851
f 898 883 884
f 897 853 852
f 898 884 885
f 897 854 853
f 898 885 886
f 897 855 854
f 898 886 887
f 897 856 855
f 898 887 888
f 897 857 856
f 898 888 889
f 897 858 857
f 898 889 890
f 897 859 858
f 898 890 891
f 897 860 859
f 898 891 892
f 897 861 860
f 898 892 893
f 897 862 861
f 898 893 894
f 897 863 862
f 898 894 895
f 897 864 863
f 898 895 896
f 897 833 864
f 898 896 865
usemtl Dark_Joints
f 899 900 932 931
f 900 901 933 932
f 901 902 934 933
f 902 903 935 934
f 903 904 936 935
f 904 905 937 936
f 905 906 938 937
f 906 907 939 938
f 907 908 940 939
f 908 909 941 940
f 909 910 942 941
f 910 911 943 942
f 911 912 944 943
f 912 913 945 944
f 913 914 946 945
f 914 915 947 946
f 915 916 948 947
f 916 917 949 948
f 917 918 950 949
f 918 919 951 950
f 919 920 952 951
f 920 921 953 952
f 921 922 954 953
f 922 923 955 954
f 923 924 956 955
f 924 925 957 956
f 925 926 958 957
f 926 927 959 958
f 927 928 960 959
f 928 929 961 960
f 929 930 962 961
f 930 899 931 962
f 963 900 899
f 964 931 932
f 963 901 900
f 964 932 933
f 963 902 901
f 964 933 934
f 963 903 902
f 964 934 935
f 963 904 903
f 964 935 936
f 963 905 904
f 964 936 937
f 963 906 905
f 964 937 938
f 963 907 906
f 964 938 939
f 963 908 907
f 964 939 940
f 963 909 908
f 964 940 941
f 963 910 909
f 964 941 942
f 963 911 910
f 964 942 943
f 963 912 911
f 964 943 944
f 963 913 912
f 964 944 945
f 963 914 913
f 964 945 946
f 963 915 914
f 964 946 947
f 963 916 915
f 964 947 948
f 963 917 916
f 964 948 949
f 963 918 917
f 964 949 950
f 963 919 918
f 964 950 951
f 963 920 919
f 964 951 952
f 963 921 920
f 964 952 953
f 963 922 921
f 964 953 954
f 963 923 922
f 964 954 955
f 963 924 923
f 964 955 956
f 963 925 924
f 964 956 957
f 963 926 925
f 964 957 958
f 963 927 926
f 964 958 959
f 963 928 927
f 964 959 960
f 963 929 928
f 964 960 961
f 963 930 929
f 964 961 962
f 963 899 930
f 964 962 931
usemtl Metallic_Arm
f 965 966 998 997
f 966 967 999 998
f 967 968 1000 999
f 968 969 1001 1000
f 969 970 1002 1001
f 970 971 1003 1002
f 971 972 1004 1003
f 972 973 1005 1004
f 973 974 1006 1005
f 974 975 1007 1006
f 975 976 1008 1007
f 976 977 1009 1008
f 977 978 1010 1009
f 978 979 1011 1010
f 979 980 1012 1011
f 980 981 1013 1012
f 981 982 1014 1013
f 982 983 1015 1014
f 983 984 1016 1015
f 984 985 1017 1016
f 985 986 1018 1017
f 986 987 1019 1018
f 987 988 1020 1019
f 988 989 1021 1020
f 989 990 1022 1021
f 990 991 1023 1022
f 991 992 1024 1023
f 992 993 1025 1024
f 993 994 1026 1025
f 994 995 1027 1026
f 995 996 1028 1027
f 996 965 997 1028
f 1029 966 965
f 1030 997 998
f 1029 967 966
f 1030 998 999
f 1029 968 967
f 1030 999 1000
f 1029 969 968
f 1030 1000 1001
f 1029 970 969
f 1030 1001 1002
f 1029 971 970
f 1030 1002 1003
f 1029 972 971
f 1030 1003 1004
f 1029 973 972
f 1030 1004 1005
f 1029 974 973
f 1030 1005 1006
f 1029 975 974
f 1030 1006 1007
f 1029 976 975
f 1030 1007 1008
f 1029 977 976
f 1030 1008 1009
f 1029 978 977
f 1030 1009 1010
f 1029 979 978
f 1030 1010 1011
f 1029 980 979
f 1030 1011 1012
f 1029 981 980
f 1030 1012 1013
f 1029 982 981
f 1030 1013 1014
f 1029 983 982
f 1030 1014 1015
f 1029 984 983
f 1030 1015 1016
f 1029 985 984
f 1030 1016 1017
f 1029 986 985
f 1030 1017 1018
f 1029 987 986
f 1030 1018 1019
f 1029 988 987
f 1030 1019 1020
f 1029 989 988
f 1030 1020 1021
f 1029 990 989
f 1030 1021 1022
f 1029 991 990
f 1030 1022 1023
f 1029 992 991
f 1030 1023 1024
f 1029 993 992
f 1030 1024 1025
f 1029 994 993
f 1030 1025 1026
f 1029 995 994
f 1030 1026 1027
f 1029 996 995
f 1030 1027 1028
f 1029 965 996
f 1030 1028 997
usemtl Dark_Joints
f 1031 1032 1033 1034
f 1035 1038 1037 1036
f 1031 1035 1036 1032
f 1032 1036 1037 1033
f 1033 1037 1038 1034
f 1034 1038 1035 1031
usemtl Anodized_Red
f 1039 1040 1041 1042
f 1043 1046 1045 1044
f 1039 1043 1044 1040
f 1040 1044 1045 1041
f 1041 1045 1046 1042
f 1042 1046 1043 1039
usemtl Anodized_Red
f 1047 1048 1049 1050
f 1051 1054 1053 1052
f 1047 1051 1052 1048
f 1048 1052 1053 1049
f 1049 1053 1054 1050
f 1050 1054 1051 1047
usemtl Dark_Joints
f 1055 1056 1057 1058
f 1059 1062 1061 1060
f 1055 1059 1060 1056
f 1056 1060 1061 1057
f 1057 1061 1062 1058
f 1058 1062 1059 1055
usemtl Dark_Joints
f 1063 1064 1065 1066
f 1067 1070 1069 1068
f 1063 1067 1068 1064
f 1064 1068 1069 1065
f 1065 1069 1070 1066
f 1066 1070 1067 1063
