# TAG-Net 3D Robotic Arm Scene for Autodesk Fusion 360
mtllib robot_arm_scene.mtl

usemtl Table_Surface
v 0.2000 -0.3500 0.0000
v 0.7000 -0.3500 0.0000
v 0.7000 0.3500 0.0000
v 0.2000 0.3500 0.0000
v 0.2000 -0.3500 0.7000
v 0.7000 -0.3500 0.7000
v 0.7000 0.3500 0.7000
v 0.2000 0.3500 0.7000
f 1 2 3 4
f 5 8 7 6
f 1 5 6 2
f 2 6 7 3
f 3 7 8 4
f 4 8 5 1

usemtl Tool_Handle
v 0.4300 -0.0600 0.7100
v 0.4700 -0.0600 0.7100
v 0.4700 0.0600 0.7100
v 0.4300 0.0600 0.7100
v 0.4300 -0.0600 0.7500
v 0.4700 -0.0600 0.7500
v 0.4700 0.0600 0.7500
v 0.4300 0.0600 0.7500
f 9 10 11 12
f 13 16 15 14
f 9 13 14 10
f 10 14 15 11
f 11 15 16 12
f 12 16 13 9

usemtl Dark_Joints
v -0.0800 -0.0800 0.6800
v 0.0800 -0.0800 0.6800
v 0.0800 0.0800 0.6800
v -0.0800 0.0800 0.6800
v -0.0800 -0.0800 0.7600
v 0.0800 -0.0800 0.7600
v 0.0800 0.0800 0.7600
v -0.0800 0.0800 0.7600
f 17 18 19 20
f 21 24 23 22
f 17 21 22 18
f 18 22 23 19
f 19 23 24 20
f 20 24 21 17

usemtl Metallic_Arm
v -0.0600 -0.0600 0.7600
v 0.0600 -0.0600 0.7600
v 0.0600 0.0600 0.7600
v -0.0600 0.0600 0.7600
v -0.0600 -0.0600 1.0000
v 0.0600 -0.0600 1.0000
v 0.0600 0.0600 1.0000
v -0.0600 0.0600 1.0000
f 25 26 27 28
f 29 32 31 30
f 25 29 30 26
f 26 30 31 27
f 27 31 32 28
f 28 32 29 25

usemtl Dark_Joints
v 0.0000 -0.0500 1.0000
v 0.3000 -0.0500 1.0000
v 0.3000 0.0500 1.0000
v 0.0000 0.0500 1.0000
v 0.0000 -0.0500 1.1000
v 0.3000 -0.0500 1.1000
v 0.3000 0.0500 1.1000
v 0.0000 0.0500 1.1000
f 33 34 35 36
f 37 40 39 38
f 33 37 38 34
f 34 38 39 35
f 35 39 40 36
f 36 40 37 33

usemtl Metallic_Arm
v 0.2250 -0.0450 0.9050
v 0.4750 -0.0450 0.9050
v 0.4750 0.0450 0.9050
v 0.2250 0.0450 0.9050
v 0.2250 -0.0450 0.9950
v 0.4750 -0.0450 0.9950
v 0.4750 0.0450 0.9950
v 0.2250 0.0450 0.9950
f 41 42 43 44
f 45 48 47 46
f 41 45 46 42
f 42 46 47 43
f 43 47 48 44
f 44 48 45 41

usemtl Dark_Joints
v 0.4100 -0.0500 0.7900
v 0.4900 -0.0500 0.7900
v 0.4900 0.0500 0.7900
v 0.4100 0.0500 0.7900
v 0.4100 -0.0500 0.8500
v 0.4900 -0.0500 0.8500
v 0.4900 0.0500 0.8500
v 0.4100 0.0500 0.8500
f 49 50 51 52
f 53 56 55 54
f 49 53 54 50
f 50 54 55 51
f 51 55 56 52
f 52 56 53 49

usemtl Red_Gripper
v 0.4300 0.0275 0.7100
v 0.4700 0.0275 0.7100
v 0.4700 0.0425 0.7100
v 0.4300 0.0425 0.7100
v 0.4300 0.0275 0.7900
v 0.4700 0.0275 0.7900
v 0.4700 0.0425 0.7900
v 0.4300 0.0425 0.7900
f 57 58 59 60
f 61 64 63 62
f 57 61 62 58
f 58 62 63 59
f 59 63 64 60
f 60 64 61 57

usemtl Red_Gripper
v 0.4300 -0.0425 0.7100
v 0.4700 -0.0425 0.7100
v 0.4700 -0.0275 0.7100
v 0.4300 -0.0275 0.7100
v 0.4300 -0.0425 0.7900
v 0.4700 -0.0425 0.7900
v 0.4700 -0.0275 0.7900
v 0.4300 -0.0275 0.7900
f 65 66 67 68
f 69 72 71 70
f 65 69 70 66
f 66 70 71 67
f 67 71 72 68
f 68 72 69 65
